<svg version="1.2" xmlns="http://www.w3.org/2000/svg" viewBox="0 0 302 321" width="302" height="321">
	<title>Calque 1</title>
	<defs>
		<clipPath clipPathUnits="userSpaceOnUse" id="cp1">
			<path d="m299.27 317.98h-295.41l1.46-315.26h293.95z"/>
		</clipPath>
	</defs>
	<style>
		.s0 { fill: #71a55f;stroke: #000000;stroke-miterlimit:10;stroke-width: 2.7 } 
		.s1 { fill: #e3c32b;stroke: #000000;stroke-miterlimit:10;stroke-width: 2.7 } 
		.s2 { fill: #ffffff;stroke: #ffffff;stroke-miterlimit:10;stroke-width: 2.7 } 
		.s3 { fill: #7897b7;stroke: #000000;stroke-linejoin: round;stroke-width: 2.7 } 
		.s4 { fill: #d06d2f;stroke: #000000;stroke-miterlimit:10;stroke-width: 2.7 } 
		.s5 { fill: #000000 } 
		.s6 { fill: #ffffff;stroke: #000000;stroke-miterlimit:10;stroke-width: 2.7 } 
		.s7 { fill: #71a55f;stroke: #000000;stroke-linejoin: round;stroke-width: 2.7 } 
		.s8 { fill: #dac700;stroke: #000000;stroke-linejoin: round;stroke-width: 2.7 } 
		.s9 { fill: none;stroke: #000000;stroke-miterlimit:10;stroke-width: 4 } 
		.s10 { fill: none;stroke: #000000;stroke-miterlimit:10;stroke-width: 2.7 } 
	</style>
	<g id="Calque 1">
		<g id="-e-&lt;Group&gt;">
			<g id="&lt;Group&gt;">
				<g id="&lt;Group&gt;">
					<path id="&lt;Path&gt;" class="s0" d="m299.6 109.3h-6.4c-18.4 0-24 16.2-24 35v94.9c0 16.2-2.3 29.9 12.6 33.3v37.7h17.5v-38.4h-0.3"/>
					<g id="&lt;Group&gt;">
						<path id="&lt;Compound Path&gt;" fill-rule="evenodd" class="s1" d="m262.8 182.3l34.7 28.4v99.1c-26.6-8.5-54-15.6-81.8-19.1v-69.5h-12.6c-0.9 0-1.6-3.1-0.3-3.8 12.2-7.3 24.7-14.4 37-21.6 1-0.5 1.6-1.8 1.8-1.9 4.3-2.5 9.2-4.8 13.7-7.5 2.3-1.4 5.2-2.5 7.5-4.1zm-0.7 43.3c-0.8 4 0 13.6 0 18.4 0 0.5 1.6 1.5 2.4 1.7 1.9 0.4 12.3 0.4 14.3 0 0.9-0.2 1.1-0.3 1.6-1.1 1.1-1.5 1.1-15 0.7-17.6-1.5-10.8-17.3-9.9-19-1.4zm-23 25.8c-0.9 0.9-2.7 4.3-2.9 5.6-0.4 2.9-0.6 14.4 1.6 16 1.3 0.9 11.8 1 13.4 0.3 2.8-1.3 2.4-12.6 2-15.7-0.7-6.5-8.8-11.3-14.1-6.2z"/>
						<path id="&lt;Compound Path&gt;" fill-rule="evenodd" class="s2" d="m114.2 230.7c-30.9 0.4-76.9-0.1-107.8 0v-48.4c13.9-20 45.4-38.6 60.4-57.9l2-1.4 45.2 58.4zm-42.4-63.5c1.2-1.2 1.2-14.9 0.7-17.1-1.1-5.1-7.8-4.5-8.7-0.1-0.4 2.2-0.2 16.1 0.9 17.2 1.1 1.2 5.9 1.2 7.1 0zm1.9 46.5c1.8 0.5 8.4 0 10.9 0 2.3 0 1.8-12.4 1.4-14.3-1.5-7-9.9-9.3-13.6-2.7-1.6 2.8-2.3 16 1.3 17zm-16.9-20.3c-6.2 1.4-6.8 16.6-4.2 19.6 1.9 2.2 10.8 1.9 12.6-0.3 2.1-2.5 1.1-14.7-0.7-17.1-1.9-2.4-4.8-2.9-7.7-2.2z"/>
						<path id="&lt;Compound Path&gt;" fill-rule="evenodd" class="s3" d="m241.6 67.8v96.8h-71.5v32c-0.9-1-4.5-3.4-4.8-4.7-0.7-2.7 0.7-18.4 0-19.1-12-0.3-24.1 0.4-36.1 0v-45.7l-9.6-0.7c32 1.2 64.7-0.8 96.8 0 0.8-0.7-5-6-5.8-6.8-7-6.7-15.5-14-22.8-20.4l0.7-31.4c17.6 0.3 35.5 0.2 53.1 0zm-44.7 11.2c-3 3-3.8 18.8 0.2 20 2.2 0.7 8.5 0.7 9.8-1.5 1.1-1.8 1-13 0.3-15.4-1.2-4.6-6.8-6.6-10.3-3.1zm27.5 7.4c-3.6 0.4-6.2 4.2-6.6 7.7-0.5 4.1-1.3 14.9 4.4 15.3 0.7 0 7.6-0.7 8.1-0.8 3.6-1.1 2.9-13.8 2-16.7-1.1-3.2-4.5-6-7.9-5.5zm-70.9 47.7c-5.5 1.6-5.9 17.3-3.5 19.6 0.7 0.8 10.2 1.4 11.6 0.8 3.6-1.6 2.9-14 1.3-17.2-1.6-3.3-5.9-4.2-9.4-3.2zm19.6 20.3c1.9 0.5 8.4 0 10.9 0 2.3 0 2.1-13.9 1.6-15.9-1.7-6.4-12.6-6.4-14 0.7-0.4 2.1-0.5 10.7-0.1 12.8 0.1 0.8 1 2.2 1.6 2.4z"/>
						<path id="&lt;Path&gt;" class="s3" d="m21.5 230.7c30.9-0.1 61.8 0.4 92.7 0 3.4 0 6.8 0 10.2 0l0.7 57.9c-12 0.9-24.3 2.6-36.1 4.8-2.1-12.8 0.4-27-0.7-39.9-1.9-22.1-35.6-23.6-37.5 2.7-1.1 14.9 0.9 31.1 0 46.1-15.3 4.2-30.4 9.4-45 15.6v-87.2c5.2 0 10.5 0 15.7 0z"/>
						<path id="&lt;Path&gt;" class="s4" d="m165.3 191.9c0.3 1.3 3.9 3.7 4.8 4.7 6.3 7.4 12.9 14.6 19.4 21.9 3.8 4.2 10.3 8 10.6 13.9v56.9c-7.1-0.6-14.1-1.2-21.2-1.3-0.7-10.7 1-22.6 0.1-33.1-1.5-16.6-25.2-18.2-29.8-2.4l-0.3 35.5c0 0-60.6 2.5-23.8 0.6l-0.7-57.9c9-9.2 17.9-18.7 27.3-27.6 3.1-3 7.3-7.2 10.5-9.9 1-0.8 1.6-1.6 3.1-1.3z"/>
						<path id="&lt;Path&gt;" class="s5" d="m129.2 172.8c12 0.4 24.1-0.3 36.1 0 0.7 0.7-0.7 16.4 0 19.1-1.5-0.3-2.1 0.5-3.1 1.3-3.2 2.7-7.4 6.9-10.5 9.9-9.4 8.9-18.3 18.4-27.3 27.6-3.4 0-6.8 0-10.2 0l-0.2-49.3-45.2-58.4-2 1.4c-15 19.3-34.2 37.9-48 57.9-4.4-0.4-9.7 0.6-14 0-0.9-0.1-1.2 0.4-1-1l65.1-80.7 1.7 1 53.5 70.5c1.3 1.2 3.4 0.6 5.1 0.7z"/>
						<path id="&lt;Compound Path&gt;" fill-rule="evenodd" class="s6" d="m241.6 164.6v29.3c-0.2 0.1-0.8 1.4-1.8 1.9-12.3 7.2-24.8 14.3-37 21.6-1.3 0.7-0.6 3.8 0.3 3.8h12.6v69.5c-5-0.7-10.5-0.9-15.6-1.4v-56.9c-0.3-5.9-6.8-9.7-10.6-13.9-6.5-7.3-13.1-14.5-19.4-21.9v-32zm-34.9 33.2c1.1-1.2 1.1-14.1 0.8-16.5-1.1-11.6-16.5-10.8-18.2-0.5-0.4 2.3-0.6 14.1 0.2 15.8 0.2 0.5 1.2 1.5 1.7 1.7 1.7 0.8 14.3 0.7 15.5-0.5z"/>
						<path id="&lt;Path&gt;" class="s4" d="m187.8 99.2c7.3 6.4 15.8 13.7 22.8 20.4 0.8 0.8 6.6 6.1 5.8 6.8-32.1-0.8-64.8 1.2-96.8 0-1 0-3 0.7-2.7-1 4.1-3.3 8.1-6.8 12.3-9.9 6.6-4.9 13.2-9.9 19.7-15 2.8-2.1 20.1-15.7 21.5-15.6 5.8 4.7 11.8 9.4 17.4 14.3z"/>
						<path id="&lt;Path&gt;" class="s5" d="m89 293.4c-12.7 2.3-25.7 5.5-38.2 8.9 0.9-15-1.1-31.2 0-46.1 1.9-26.3 35.6-24.8 37.5-2.7 1.1 12.9-1.4 27.1 0.7 39.9z"/>
						<path id="&lt;Path&gt;" class="s5" d="m188.5 67.8c-1.2 0-6.8 0.7-6.1-1l33.7-48.7 33 48.7c0.2 1.4 0 0.9-1 1-1.9 0.3-4.4 0-6.5 0-17.6 0.2-35.5 0.3-53.1 0z"/>
						<path id="&lt;Path&gt;" class="s5" d="m178.9 288c-9.9-0.3-20-0.2-30 0l0.3-35.5c4.6-15.8 28.3-14.2 29.8 2.4 0.9 10.5-0.8 22.4-0.1 33.1z"/>
						<path id="&lt;Path&gt;" class="s5" d="m129.2 115.5c0.7-8-1-17.7-0.1-25.6 0.1-0.6 0.4-2.3 1.1-2.3h18.7v12.9c-6.5 5.1-13.1 10.1-19.7 15z"/>
						<path id="&lt;Path&gt;" class="s5" d="m262.1 225.6c1.7-8.5 17.5-9.4 19 1.4 0.4 2.6 0.4 16.1-0.7 17.6-0.5 0.8-0.7 0.9-1.6 1.1-2 0.4-12.4 0.4-14.3 0-0.8-0.2-2.4-1.2-2.4-1.7 0-4.8-0.8-14.4 0-18.4z"/>
						<path id="&lt;Path&gt;" class="s5" d="m239.1 251.4c5.3-5.1 13.4-0.3 14.1 6.2 0.4 3.1 0.8 14.4-2 15.7-1.6 0.7-12.1 0.6-13.4-0.3-2.2-1.6-2-13.1-1.6-16 0.2-1.3 2-4.7 2.9-5.6z"/>
						<path id="&lt;Path&gt;" class="s5" d="m73.6 213.7c-3.6-1-2.8-14.2-1.3-17 3.7-6.6 12.2-4.3 13.6 2.6 0.5 2 0.9 14.4-1.4 14.4-2.5 0-9 0.5-10.9 0z"/>
						<path id="&lt;Path&gt;" class="s5" d="m56.7 193.4c2.9-0.7 5.9-0.2 7.7 2.2 1.9 2.4 2.8 14.6 0.8 17.1-1.8 2.2-10.8 2.5-12.7 0.3-2.5-3-1.9-18.2 4.2-19.6z"/>
						<path id="&lt;Path&gt;" class="s5" d="m71.8 167.2c-1.2 1.2-6 1.1-7.2 0-1.1-1.1-1.2-15.1-0.8-17.2 0.8-4.4 7.5-5.1 8.7 0.1 0.5 2.2 0.5 15.9-0.7 17.1z"/>
						<path id="&lt;Path&gt;" class="s5" d="m224.4 86.4c3.4-0.5 6.8 2.3 7.9 5.5 0.9 2.9 1.6 15.6-2 16.7-0.5 0.1-7.4 0.8-8.1 0.8-5.7-0.4-4.9-11.2-4.4-15.3 0.4-3.5 3-7.3 6.6-7.7z"/>
						<path id="&lt;Path&gt;" class="s5" d="m153.5 134.1c3.5-1 7.8-0.1 9.4 3.2 1.6 3.2 2.3 15.6-1.3 17.2-1.4 0.6-10.9 0-11.6-0.8-2.4-2.3-2-18 3.5-19.6z"/>
						<path id="&lt;Path&gt;" class="s5" d="m173.1 154.4c-0.6-0.2-1.5-1.6-1.6-2.4-0.4-2.1-0.3-10.7 0.1-12.8 1.4-7.1 12.3-7.1 14-0.7 0.5 2 0.7 15.9-1.6 15.9-2.5 0-9 0.5-10.9 0z"/>
						<path id="&lt;Path&gt;" class="s5" d="m196.9 79c3.5-3.5 9.1-1.5 10.3 3.1 0.7 2.4 0.8 13.6-0.3 15.4-1.3 2.2-7.6 2.2-9.8 1.5-4-1.2-3.2-17-0.2-20z"/>
						<path id="&lt;Path&gt;" class="s5" d="m206.7 197.8c-1.2 1.2-13.8 1.3-15.5 0.5-0.5-0.2-1.5-1.2-1.7-1.7-0.7-1.7-0.6-13.5-0.2-15.8 1.7-10.3 17.2-11.1 18.3 0.5 0.2 2.4 0.3 15.3-0.9 16.5z"/>
					</g>
					<path id="&lt;Path&gt;" class="s7" d="m22.5 215.9c-9.4 0-17.1 7.9-17.1 17.5v48.6c0 8.3 5.8 15.3 13.4 17v19.4h9v-19.7h-0.2c7-2.3 12.1-8.9 12.1-16.7v-48.6c0-9.6-7.7-17.5-17.2-17.5z"/>
					<path id="&lt;Path&gt;" class="s5" d="m7.8 317.8h-3.9v-313.7h3.9z"/>
					<g id="&lt;Clip Group&gt;" clip-path="url(#cp1)">
						<path id="&lt;Path&gt;" class="s8" d="m133.8 38.2c0-25.4-21.3-45.9-47.6-45.9-26.3 0-47.6 20.5-47.6 45.9 0 25.3 21.3 45.9 47.6 45.9 26.3 0 47.6-20.6 47.6-45.9z"/>
						<path id="&lt;Path&gt;" class="s9" d="m299.3 318h-295.4l1.4-315.3h294z"/>
					</g>
					<path id="&lt;Path&gt;" class="s0" d="m5.8 319.3c0 0 110.8-58.7 275.2-13.5 8.3 2.3 16.3 3.6 19 13.5z"/>
				</g>
				<path id="&lt;Path&gt; copy" class="s10" d="m5.4 319.3v-317.7h-2.2v317.7z"/>
			</g>
			<path id="&lt;Path&gt;" class="s10" d="m299.3 317.1h-295.5v2.2h295.5z"/>
			<path id="&lt;Path&gt;" class="s10" d="m299.3 1.6h-295.5v2.2h295.5z"/>
			<path id="&lt;Path&gt;" class="s10" d="m300.4 319.3v-317.7h-2.2v317.7z"/>
		</g>
	</g>
</svg>